<!DOCTYPE svg:svg PUBLIC "-//W3C//DTD SVG 1.1//EN" "http://www.w3.org/Graphics/SVG/1.1/DTD/svg11.dtd"><svg xmlns="http://www.w3.org/2000/svg" xmlns:a="http://www.rozsival.com/2015/vector-screencast" width="626" height="796" viewBox="0 0 626 796"><metadata><a:length>6768.295</a:length><a:width>626</a:width><a:height>796</a:height><a:audio><a:source a:type="audio/mp3" a:src="http://localhost:3000//recordings/abeb40b4-7756-453f-80eb-77c486e2bf83.mp3"/></a:audio></metadata><g a:type="video-chunks"><g a:type="erase" a:t="0.00"><rect fill="#111" width="626" height="796"/><a:e a:c="#111"/><a:c a:c="#fff"/><a:s a:w="5"/><a:m a:x="88" a:y="400"/><a:m a:x="580" a:y="203"/><a:m a:x="580" a:y="203"/><a:m a:x="469" a:y="226"/><a:m a:x="345" a:y="264"/><a:m a:x="224" a:y="309"/><a:m a:x="118" a:y="359"/><a:m a:x="70" a:y="399"/><a:m a:x="50" a:y="424"/><a:m a:x="42" a:y="440"/><a:m a:x="38" a:y="462"/><a:m a:x="47" a:y="474"/><a:m a:x="101" a:y="493"/><a:m a:x="195" a:y="510"/><a:m a:x="329" a:y="528"/><a:m a:x="399" a:y="536"/><a:m a:x="446" a:y="541"/><a:m a:x="481" a:y="545"/><a:m a:x="492" a:y="548"/><a:m a:x="493" a:y="552"/><a:m a:x="480" a:y="562"/><a:m a:x="454" a:y="582"/><a:m a:x="419" a:y="606"/><a:m a:x="397" a:y="621"/><a:m a:x="382" a:y="632"/><a:m a:x="370" a:y="639"/><a:m a:x="366" a:y="643"/><a:m a:x="363" a:y="645"/><a:m a:x="360" a:y="646"/><a:m a:x="356" a:y="647"/><a:m a:x="348" a:y="649"/><a:m a:x="342" a:y="650"/><a:m a:x="338" a:y="651"/><a:m a:x="334" a:y="651"/><a:m a:x="333" a:y="651"/><a:m a:x="331" a:y="651"/><a:m a:x="330" a:y="651"/><a:m a:x="330" a:y="651"/><a:m a:x="329" a:y="651"/><a:m a:x="325" a:y="656"/><a:m a:x="318" a:y="668"/><a:m a:x="310" a:y="680"/><a:m a:x="305" a:y="688"/><a:m a:x="301" a:y="692"/><a:m a:x="299" a:y="696"/><a:m a:x="298" a:y="697"/><a:m a:x="297" a:y="699"/><a:m a:x="296" a:y="700"/><a:m a:x="294" a:y="702"/><a:m a:x="294" a:y="702"/><a:m a:x="293" a:y="702"/><a:m a:x="292" a:y="702"/><a:m a:x="292" a:y="702"/><a:c a:c="#59a0fa"/><a:m a:x="285" a:y="711"/><a:m a:x="273" a:y="728"/><a:m a:x="260" a:y="743"/><a:m a:x="249" a:y="752"/><a:m a:x="238" a:y="763"/><a:m a:x="230" a:y="772"/><a:m a:x="225" a:y="774"/><a:m a:x="224" a:y="775"/><a:m a:x="225" a:y="775"/><a:m a:x="226" a:y="773"/><a:m a:x="229" a:y="772"/><a:m a:x="230" a:y="771"/><a:m a:x="230" a:y="770"/><a:m a:x="230" a:y="769"/><a:m a:x="230" a:y="768"/><a:m a:x="230" a:y="767"/><a:m a:x="230" a:y="766"/><a:m a:x="230" a:y="766"/><a:s a:w="15"/><a:m a:x="231" a:y="766"/><a:m a:x="242" a:y="766"/><a:m a:x="261" a:y="766"/><a:m a:x="279" a:y="766"/><a:m a:x="297" a:y="766"/><a:m a:x="308" a:y="766"/><a:m a:x="317" a:y="764"/><a:m a:x="320" a:y="760"/><a:m a:x="323" a:y="749"/><a:m a:x="323" a:y="742"/><a:m a:x="323" a:y="735"/><a:m a:x="323" a:y="733"/><a:m a:x="323" a:y="731"/><a:m a:x="323" a:y="727"/><a:m a:x="323" a:y="703"/><a:m a:x="323" a:y="656"/><a:m a:x="323" a:y="616"/><a:m a:x="323" a:y="587"/><a:m a:x="323" a:y="566"/><a:m a:x="323" a:y="561"/><a:m a:x="323" a:y="558"/><a:m a:x="322" a:y="558"/><a:m a:x="321" a:y="558"/><a:m a:x="319" a:y="558"/><a:m a:x="314" a:y="551"/><a:m a:x="301" a:y="534"/><a:m a:x="282" a:y="505"/><a:m a:x="267" a:y="481"/><a:m a:x="257" a:y="469"/><a:m a:x="256" a:y="469"/><a:m a:x="251" a:y="471"/><a:m a:x="238" a:y="484"/><a:m a:x="220" a:y="508"/><a:m a:x="192" a:y="542"/><a:m a:x="163" a:y="582"/><a:m a:x="140" a:y="606"/><a:m a:x="122" a:y="624"/><a:m a:x="109" a:y="632"/><a:m a:x="104" a:y="634"/><a:m a:x="102" a:y="635"/><a:m a:x="100" a:y="635"/><a:m a:x="97" a:y="636"/><a:m a:x="93" a:y="638"/><a:m a:x="88" a:y="640"/><a:m a:x="86" a:y="642"/><a:m a:x="85" a:y="643"/><a:m a:x="83" a:y="646"/><a:m a:x="81" a:y="651"/><a:m a:x="77" a:y="662"/><a:m a:x="73" a:y="667"/><a:m a:x="68" a:y="672"/><a:m a:x="67" a:y="674"/><a:m a:x="67" a:y="675"/><a:m a:x="67" a:y="676"/><a:m a:x="66" a:y="677"/><a:m a:x="65" a:y="679"/><a:m a:x="64" a:y="682"/><a:m a:x="62" a:y="684"/><a:m a:x="59" a:y="687"/><a:m a:x="57" a:y="691"/><a:m a:x="56" a:y="693"/><a:m a:x="55" a:y="695"/><a:m a:x="54" a:y="696"/><a:m a:x="54" a:y="696"/></g><g a:type="void" a:t="0.00"><a:m a:x="54" a:y="688" a:t="162.54"/><a:m a:x="68" a:y="662" a:t="179.56"/><a:m a:x="100" a:y="605" a:t="196.16"/><a:m a:x="143" a:y="521" a:t="212.56"/><a:m a:x="187" a:y="423" a:t="229.48"/><a:m a:x="223" a:y="321" a:t="246.31"/><a:m a:x="239" a:y="261" a:t="263.41"/><a:m a:x="247" a:y="218" a:t="282.72"/><a:m a:x="253" a:y="191" a:t="298.72"/><a:m a:x="256" a:y="170" a:t="315.58"/><a:m a:x="256" a:y="164" a:t="332.35"/><a:m a:x="256" a:y="159" a:t="349.29"/><a:m a:x="256" a:y="157" a:t="380.33"/><a:m a:x="256" a:y="156" a:t="396.83"/><a:m a:x="256" a:y="156" a:t="404.2"/><a:m a:x="256" a:y="155" a:t="444.39"/><a:m a:x="255" a:y="155" a:t="461.47"/><a:m a:x="254" a:y="155" a:t="480.64"/><a:m a:x="253" a:y="153" a:t="494.2"/><a:m a:x="248" a:y="153" a:t="512.16"/><a:m a:x="244" a:y="153" a:t="528.65"/><a:m a:x="237" a:y="153" a:t="546.78"/><a:m a:x="232" a:y="153" a:t="564.03"/><a:m a:x="228" a:y="151" a:t="581.74"/><a:m a:x="226" a:y="150" a:t="597.91"/><a:m a:x="224" a:y="149" a:t="620.57"/><a:m a:x="223" a:y="149" a:t="633.19"/><a:m a:x="222" a:y="149" a:t="649.38"/><a:m a:x="221" a:y="149" a:t="683.9"/><a:m a:x="220" a:y="149" a:t="740.88"/><a:m a:x="220" a:y="153" a:t="852.15"/><a:m a:x="219" a:y="170" a:t="870.6"/><a:m a:x="203" a:y="223" a:t="888.4"/><a:m a:x="174" a:y="298" a:t="903.41"/><a:m a:x="153" a:y="354" a:t="923.86"/><a:m a:x="126" a:y="417" a:t="939.14"/><a:m a:x="114" a:y="447" a:t="955.73"/><a:m a:x="109" a:y="460" a:t="974.6"/><a:m a:x="107" a:y="464" a:t="991.43"/><a:m a:x="106" a:y="465" a:t="1007.55"/><a:m a:x="106" a:y="463" a:t="1052.47"/><a:m a:x="106" a:y="455" a:t="1069.02"/><a:m a:x="106" a:y="441" a:t="1087.11"/><a:m a:x="106" a:y="425" a:t="1103.13"/><a:m a:x="106" a:y="404" a:t="1120.73"/><a:m a:x="106" a:y="382" a:t="1137.85"/><a:m a:x="106" a:y="363" a:t="1154.53"/><a:m a:x="106" a:y="342" a:t="1173.38"/><a:m a:x="106" a:y="331" a:t="1189.31"/><a:m a:x="104" a:y="324" a:t="1205.75"/><a:m a:x="103" a:y="322" a:t="1223.45"/><a:m a:x="102" a:y="320" a:t="1239.48"/><a:m a:x="102" a:y="320" a:p="1" a:t="1353.16"/></g><g a:type="path" a:t="1353.35"><path fill="#59a0fa" d="M 109.459,320 C 109.459,320 109.459,320.207 109.459,320 C 109.459,319.793 109.383,320.091 109.459,318.758 C 109.534,317.425 109.703,314.686 109.913,312.002 C 110.124,309.318 110.46,306.006 110.723,302.654 C 110.986,299.302 111.252,295.311 111.492,291.889 C 111.731,288.467 111.96,285.025 112.158,282.122 C 112.356,279.22 112.53,276.651 112.677,274.473 C 112.825,272.296 112.943,270.546 113.043,269.057 C 113.144,267.567 113.217,266.474 113.28,265.538 C 113.343,264.601 113.385,263.979 113.42,263.439 C 113.456,262.9 115.963,262.112 113.495,262.301 C 111.028,262.489 101.082,263.33 98.615,264.572 C 96.148,265.813 98.602,267.333 98.694,269.75 C 98.786,272.166 98.833,274.901 99.167,279.073 C 99.502,283.245 100.125,289.271 100.698,294.782 C 101.272,300.293 101.975,306.554 102.61,312.138 C 103.244,317.722 103.933,323.402 104.505,328.286 C 105.076,333.171 105.599,337.624 106.039,341.445 C 106.479,345.265 106.84,348.48 107.145,351.209 C 107.45,353.939 107.676,356.013 107.869,357.822 C 108.062,359.63 108.194,360.939 108.304,362.059 C 108.415,363.178 108.48,363.901 108.533,364.539 A 7.416,7.416 -0.11584419872329343 0,0 123.266,362.824 C 123.174,362.13 123.07,361.423 122.911,360.286 C 122.752,359.15 122.568,357.815 122.312,356.006 C 122.057,354.197 121.756,352.147 121.379,349.431 C 121.002,346.714 120.558,343.506 120.05,339.706 C 119.541,335.906 118.94,331.47 118.328,326.63 C 117.716,321.791 116.996,316.174 116.378,310.67 C 115.759,305.166 115.09,298.964 114.619,293.608 C 114.148,288.251 113.766,282.505 113.554,278.532 C 113.342,274.56 113.367,272.093 113.349,269.773 C 113.331,267.453 115.906,265.949 113.444,264.612 C 110.982,263.275 101.056,262.056 98.578,261.752 C 96.099,261.447 98.58,262.276 98.572,262.786 C 98.565,263.295 98.556,263.897 98.531,264.811 C 98.506,265.725 98.478,266.801 98.424,268.27 C 98.371,269.738 98.308,271.47 98.21,273.624 C 98.112,275.778 97.997,278.327 97.836,281.192 C 97.675,284.057 97.48,287.462 97.243,290.816 C 97.005,294.17 96.706,298.01 96.411,301.316 C 96.116,304.622 95.785,307.747 95.473,310.654 C 95.162,313.561 94.697,317.2 94.541,318.758 C 94.386,320.315 94.541,319.793 94.541,320 C 94.541,320.207 94.541,320 94.541,320 M 94.541,320  A 7.459,7.459 0 0,0 109.459,320"/><a:d a:t="0.09"/><a:m a:x="102" a:y="315" a:p="1" a:t="87.2"/><a:d a:t="102.54"/><a:m a:x="106" a:y="279" a:p="1" a:t="125.96"/><a:d a:t="135.68"/><a:m a:x="106" a:y="276" a:p="1" a:t="139.52"/><a:d a:t="151.33"/><a:m a:x="106" a:y="264" a:p="1" a:t="163.56"/><a:d a:t="169.06"/><a:m a:x="106" a:y="262" a:p="1" a:t="180.87"/><a:d a:t="184.74"/><a:d a:t="201.7"/><a:d a:t="217.73"/><a:d a:t="236.85"/><a:d a:t="251.4"/><a:d a:t="270.78"/><a:m a:x="106" a:y="263" a:p="1" a:t="281.09"/><a:m a:x="106" a:y="267" a:p="1" a:t="294.09"/><a:m a:x="106" a:y="275" a:p="1" a:t="313.17"/><a:d a:t="318.42"/><a:m a:x="106" a:y="288" a:p="1" a:t="330.56"/><a:d a:t="336.24"/><a:m a:x="108" a:y="309" a:p="1" a:t="350.14"/><a:d a:t="352.44"/><a:m a:x="110" a:y="331" a:p="1" a:t="365.99"/><a:m a:x="113" a:y="345" a:p="1" a:t="381.08"/><a:d a:t="386.16"/><a:m a:x="115" a:y="355" a:p="1" a:t="398.87"/><a:d a:t="402.01"/><a:m a:x="116" a:y="361" a:p="1" a:t="415.96"/><a:d a:t="418.84"/><a:m a:x="116" a:y="363" a:p="1" a:t="430.96"/><a:d a:t="435.2"/><a:m a:x="116" a:y="364" a:p="1" a:t="448.86"/><a:d a:t="452.38"/><a:d a:t="472.85"/><a:m a:x="116" a:y="365" a:p="1" a:t="488.02"/><a:d a:t="490.24"/><a:d a:t="502.26"/><a:m a:x="116" a:y="366" a:p="1" a:t="523.3"/><a:d a:t="538.76"/><a:m a:x="116" a:y="367" a:t="564.99"/><a:m a:x="116" a:y="365" a:t="713.98"/><a:m a:x="116" a:y="363" a:t="729.46"/><a:m a:x="117" a:y="360" a:t="744.78"/><a:m a:x="118" a:y="358" a:t="760.59"/><a:m a:x="121" a:y="356" a:t="779.61"/><a:m a:x="124" a:y="353" a:t="799.34"/><a:m a:x="126" a:y="348" a:t="812.27"/><a:m a:x="131" a:y="340" a:t="828.77"/><a:m a:x="135" a:y="330" a:t="845.67"/><a:m a:x="143" a:y="316" a:t="863.22"/><a:m a:x="147" a:y="309" a:t="879.77"/><a:m a:x="149" a:y="303" a:t="896.84"/><a:m a:x="151" a:y="301" a:t="913.55"/><a:m a:x="152" a:y="301" a:t="930.94"/><a:m a:x="152" a:y="300" a:t="948.84"/><a:m a:x="152" a:y="300" a:p="1" a:t="1012.38"/></g><g a:type="path" a:t="2368.60"><path fill="#59a0fa" d="M 159.46,300 C 159.46,300 159.46,300.202 159.46,300 C 159.46,299.798 159.461,299.244 159.46,298.787 C 159.458,298.33 159.45,297.746 159.449,297.258 C 159.448,296.77 159.348,297.075 159.453,295.857 C 159.558,294.64 159.802,292.321 160.079,289.951 C 160.357,287.581 160.774,284.311 161.117,281.637 C 161.461,278.964 161.829,276.217 162.14,273.91 C 162.45,271.603 162.738,269.541 162.981,267.796 C 163.224,266.051 163.427,264.639 163.599,263.439 C 163.771,262.239 163.901,261.353 164.012,260.598 C 164.123,259.842 164.745,258.297 164.266,258.904 C 163.787,259.512 161.652,263.328 161.14,264.243 C 160.627,265.159 160.939,264.382 161.19,264.399 C 161.442,264.416 162.115,264.314 162.65,264.348 C 163.185,264.381 163.737,264.476 164.403,264.6 C 165.068,264.724 166.124,264.863 166.644,265.091 C 167.165,265.318 167.097,265.597 167.524,265.966 C 167.952,266.336 168.9,266.93 169.211,267.308 C 169.522,267.686 169.292,267.806 169.39,268.235 C 169.489,268.664 169.664,269.119 169.802,269.884 C 169.94,270.648 170.12,271.642 170.217,272.822 C 170.315,274.003 170.441,275.494 170.388,276.966 C 170.335,278.438 170.151,279.868 169.899,281.655 C 169.647,283.442 169.287,285.601 168.874,287.689 C 168.461,289.777 167.95,292.043 167.42,294.183 C 166.89,296.323 166.292,298.545 165.696,300.528 C 165.1,302.511 164.545,304.175 163.844,306.081 C 163.142,307.987 162.331,310.036 161.488,311.965 C 160.645,313.894 159.748,315.728 158.785,317.657 C 157.822,319.586 156.942,321.112 155.709,323.54 C 154.476,325.967 152.827,329.32 151.387,332.223 C 149.946,335.126 148.437,338.184 147.069,340.958 C 145.7,343.732 144.345,346.437 143.177,348.866 C 142.008,351.296 140.958,353.52 140.059,355.535 C 139.16,357.55 138.411,359.407 137.782,360.958 C 137.153,362.509 136.688,363.76 136.285,364.841 C 135.883,365.921 135.609,366.729 135.367,367.441 C 135.126,368.153 133.023,367.423 134.837,369.114 C 136.652,370.805 143.779,376.292 146.255,377.586 C 148.732,378.881 148.013,377.14 149.697,376.881 C 151.381,376.622 153.752,376.294 156.36,376.032 C 158.967,375.77 162.074,375.519 165.341,375.31 C 168.607,375.101 172.395,374.891 175.96,374.777 C 179.524,374.663 183.358,374.611 186.726,374.626 C 190.093,374.64 193.345,374.735 196.163,374.864 C 198.982,374.992 201.465,375.214 203.639,375.399 C 205.814,375.585 207.66,375.797 209.21,375.976 C 210.76,376.155 211.946,376.329 212.94,376.473 C 213.934,376.618 214.615,376.742 215.175,376.842 A 7.418,7.418 -1.43025658612715 0,0 217.254,362.152 C 216.551,362.059 215.756,361.955 214.636,361.834 C 213.517,361.713 212.219,361.572 210.536,361.424 C 208.854,361.276 206.888,361.099 204.541,360.947 C 202.193,360.795 199.455,360.61 196.453,360.512 C 193.45,360.414 190.051,360.36 186.527,360.36 C 183.003,360.36 179.015,360.412 175.308,360.514 C 171.601,360.616 167.724,360.786 164.284,360.97 C 160.845,361.154 157.583,361.368 154.671,361.618 C 151.759,361.868 149.033,362.148 146.811,362.471 C 144.588,362.793 140.948,361.748 141.336,363.551 C 141.725,365.354 147.791,371.861 149.142,373.29 C 150.492,374.719 149.279,372.681 149.441,372.123 C 149.603,371.565 149.799,370.884 150.113,369.944 C 150.427,369.004 150.802,367.877 151.326,366.484 C 151.851,365.091 152.459,363.468 153.26,361.586 C 154.06,359.703 155.018,357.565 156.131,355.188 C 157.244,352.81 158.596,350.062 159.937,347.321 C 161.279,344.579 162.739,341.58 164.182,338.739 C 165.624,335.899 167.297,332.756 168.591,330.277 C 169.885,327.798 170.878,326.016 171.945,323.866 C 173.011,321.717 174.029,319.587 174.988,317.38 C 175.948,315.172 176.913,312.798 177.704,310.62 C 178.495,308.443 179.085,306.526 179.735,304.317 C 180.384,302.107 181.019,299.724 181.599,297.363 C 182.18,295.001 182.744,292.54 183.22,290.148 C 183.695,287.756 184.15,285.33 184.452,283.012 C 184.754,280.694 184.99,278.367 185.032,276.24 C 185.073,274.114 184.941,272.197 184.7,270.255 C 184.46,268.313 184.119,266.332 183.59,264.588 C 183.061,262.843 182.453,261.315 181.525,259.788 C 180.597,258.261 179.157,256.546 178.022,255.426 C 176.888,254.305 176.124,253.872 174.718,253.066 C 173.312,252.26 171.062,251.122 169.585,250.589 C 168.108,250.056 167.167,250.043 165.858,249.869 C 164.549,249.694 162.997,249.553 161.733,249.54 C 160.469,249.528 159.365,249.621 158.274,249.794 C 157.184,249.966 156.653,249.369 155.19,250.575 C 153.728,251.782 150.476,255.673 149.498,257.031 C 148.52,258.39 149.403,257.968 149.322,258.725 C 149.241,259.481 149.146,260.369 149.011,261.57 C 148.876,262.772 148.717,264.186 148.512,265.933 C 148.306,267.679 148.064,269.744 147.779,272.049 C 147.493,274.354 147.154,277.083 146.8,279.762 C 146.446,282.44 146.029,285.436 145.654,288.119 C 145.278,290.802 144.731,294.334 144.547,295.857 C 144.363,297.381 144.552,296.77 144.551,297.258 C 144.55,297.746 144.542,298.33 144.54,298.787 C 144.539,299.244 144.54,299.798 144.54,300 C 144.54,300.202 144.54,300 144.54,300 M 144.54,300  A 7.46,7.46 0 0,0 159.46,300"/><a:d a:t="0.47"/><a:m a:x="152" a:y="293" a:p="1" a:t="121.5"/><a:d a:t="124.25"/><a:d a:t="139.9"/><a:d a:t="155.16"/><a:m a:x="157" a:y="260" a:p="1" a:t="161.99"/><a:d a:t="172.67"/><a:m a:x="157" a:y="258" a:p="1" a:t="178.59"/><a:d a:t="189.25"/><a:m a:x="157" a:y="257" a:p="1" a:t="202.94"/><a:d a:t="205.86"/><a:d a:t="224.4"/><a:d a:t="240.2"/><a:d a:t="256.71"/><a:d a:t="273.27"/><a:m a:x="159" a:y="257" a:p="1" a:t="291.46"/><a:m a:x="164" a:y="257" a:p="1" a:t="306.22"/><a:d a:t="307.85"/><a:d a:t="322.4"/><a:m a:x="170" a:y="257" a:p="1" a:t="327.76"/><a:d a:t="339.82"/><a:m a:x="173" a:y="259" a:p="1" a:t="344.82"/><a:d a:t="356.91"/><a:m a:x="175" a:y="260" a:p="1" a:t="363.41"/><a:d a:t="373.2"/><a:m a:x="177" a:y="262" a:p="1" a:t="376.58"/><a:m a:x="178" a:y="266" a:p="1" a:t="392.49"/><a:d a:t="393.33"/><a:d a:t="407.18"/><a:m a:x="178" a:y="272" a:p="1" a:t="409.92"/><a:d a:t="424.23"/><a:m a:x="178" a:y="276" a:p="1" a:t="427.96"/><a:d a:t="440.34"/><a:m a:x="178" a:y="284" a:p="1" a:t="442.28"/><a:d a:t="457.66"/><a:m a:x="177" a:y="290" a:p="1" a:t="462.22"/><a:d a:t="474.61"/><a:m a:x="174" a:y="297" a:p="1" a:t="476.97"/><a:d a:t="491.58"/><a:m a:x="172" a:y="306" a:p="1" a:t="496.48"/><a:d a:t="506.7"/><a:m a:x="170" a:y="312" a:p="1" a:t="510.91"/><a:d a:t="525.93"/><a:m a:x="168" a:y="317" a:p="1" a:t="532.51"/><a:d a:t="539.63"/><a:m a:x="166" a:y="320" a:p="1" a:t="544.26"/><a:d a:t="558.88"/><a:m a:x="161" a:y="330" a:p="1" a:t="564.56"/><a:d a:t="573.85"/><a:m a:x="158" a:y="334" a:p="1" a:t="577.08"/><a:d a:t="590.06"/><a:m a:x="154" a:y="341" a:p="1" a:t="596.28"/><a:d a:t="606.85"/><a:m a:x="145" a:y="361" a:p="1" a:t="611.58"/><a:d a:t="623.66"/><a:m a:x="144" a:y="364" a:p="1" a:t="629.78"/><a:d a:t="640.57"/><a:m a:x="142" a:y="368" a:p="1" a:t="645.16"/><a:d a:t="657.03"/><a:m a:x="142" a:y="370" a:p="1" a:t="667.58"/><a:d a:t="673.42"/><a:m a:x="142" a:y="372" a:p="1" a:t="679.75"/><a:d a:t="690.42"/><a:d a:t="707.31"/><a:d a:t="723.7"/><a:d a:t="742.91"/><a:m a:x="143" a:y="372" a:p="1" a:t="765.15"/><a:m a:x="145" a:y="369" a:p="1" a:t="779.16"/><a:m a:x="151" a:y="368" a:p="1" a:t="797.18"/><a:d a:t="807.38"/><a:m a:x="165" a:y="367" a:p="1" a:t="812.24"/><a:d a:t="824.47"/><a:m a:x="179" a:y="367" a:p="1" a:t="830.66"/><a:d a:t="841.07"/><a:m a:x="191" a:y="367" a:p="1" a:t="846.32"/><a:d a:t="857.5"/><a:m a:x="204" a:y="367" a:p="1" a:t="866.04"/><a:d a:t="874.2"/><a:m a:x="212" a:y="368" a:p="1" a:t="881.08"/><a:d a:t="890.74"/><a:m a:x="215" a:y="369" a:p="1" a:t="901.26"/><a:d a:t="907.41"/><a:m a:x="217" a:y="370" a:p="1" a:t="917.71"/><a:d a:t="924.87"/><a:m a:x="218" a:y="370" a:p="1" a:t="934.89"/><a:d a:t="941.34"/><a:d a:t="958.02"/><a:d a:t="975.41"/><a:d a:t="991.94"/><a:m a:x="218" a:y="370" a:t="1010.2"/><a:m a:x="218" a:y="369" a:t="1185.57"/><a:m a:x="223" a:y="348" a:t="1203.49"/><a:m a:x="229" a:y="330" a:t="1220.61"/><a:m a:x="232" a:y="320" a:t="1236.99"/><a:m a:x="234" a:y="314" a:t="1254.22"/><a:m a:x="236" a:y="307" a:t="1271.09"/><a:m a:x="236" a:y="304" a:t="1289.8"/><a:m a:x="237" a:y="303" a:t="1306.31"/><a:m a:x="237" a:y="302" a:t="1323.58"/><a:m a:x="237" a:y="302" a:p="1" a:t="1423.75"/></g><g a:type="path" a:t="3792.38"><path fill="#59a0fa" d="M 244.402,302 C 244.402,302 244.402,302.491 244.402,302 C 244.402,301.509 244.408,300.221 244.402,299.053 C 244.396,297.886 244.373,296.397 244.365,294.994 C 244.357,293.591 244.354,292.013 244.355,290.636 C 244.356,289.259 244.362,287.887 244.37,286.73 C 244.377,285.574 244.389,284.558 244.399,283.698 C 244.409,282.838 244.42,282.153 244.429,281.57 C 244.438,280.987 244.863,279.459 244.454,280.202 C 244.046,280.945 242.096,285.175 241.979,286.027 C 241.863,286.878 243.088,285.525 243.756,285.311 C 244.425,285.097 245.124,284.925 245.99,284.745 C 246.856,284.565 247.888,284.381 248.95,284.231 C 250.012,284.08 251.225,283.893 252.362,283.844 C 253.499,283.796 254.429,283.835 255.771,283.94 C 257.114,284.045 258.668,284.22 260.417,284.477 C 262.167,284.734 264.173,285.083 266.269,285.483 C 268.365,285.883 270.725,286.367 272.992,286.876 C 275.26,287.385 277.745,287.96 279.873,288.536 C 282.001,289.113 284.045,289.733 285.76,290.332 C 287.474,290.932 288.973,291.545 290.162,292.132 C 291.352,292.72 292.271,293.334 292.895,293.859 C 293.52,294.384 293.671,294.83 293.91,295.281 C 294.148,295.732 294.213,296.092 294.323,296.567 C 294.433,297.043 294.56,297.659 294.569,298.134 C 294.579,298.609 294.489,299.024 294.382,299.418 C 294.274,299.811 294.101,300.242 293.925,300.496 C 293.749,300.751 293.555,300.798 293.326,300.945 C 293.098,301.091 292.899,301.161 292.552,301.375 C 292.206,301.589 291.792,301.929 291.248,302.227 C 290.705,302.525 290.138,302.768 289.29,303.162 C 288.441,303.557 287.268,304.133 286.158,304.594 C 285.049,305.054 283.842,305.48 282.633,305.924 C 281.424,306.367 280.109,306.822 278.904,307.253 C 277.7,307.684 276.444,308.139 275.406,308.509 C 274.368,308.88 273.45,309.214 272.677,309.479 C 271.905,309.743 271.306,309.928 270.771,310.095 C 270.236,310.261 269.062,307.995 269.468,310.479 C 269.874,312.963 272.183,322.604 273.207,324.998 C 274.231,327.393 274.638,324.899 275.612,324.847 C 276.586,324.795 277.657,324.633 279.052,324.686 C 280.447,324.738 281.792,324.67 283.98,325.161 C 286.168,325.652 288.942,326.383 292.18,327.631 C 295.418,328.878 299.492,330.667 303.409,332.646 C 307.327,334.625 311.724,337.088 315.686,339.504 C 319.648,341.92 323.649,344.667 327.181,347.142 C 330.713,349.617 334.087,352.151 336.878,354.353 C 339.67,356.556 342.014,358.572 343.931,360.357 C 345.849,362.143 347.231,363.702 348.384,365.065 C 349.537,366.428 350.454,367.775 350.848,368.536 C 351.243,369.297 350.894,369.94 350.751,369.631 C 350.608,369.322 350.067,367.647 349.99,366.684 C 349.913,365.721 351.459,364.219 350.289,363.852 C 349.12,363.484 346.454,364.283 342.971,364.479 C 339.488,364.675 334.395,364.897 329.391,365.03 C 324.387,365.163 318.465,365.231 312.947,365.278 C 307.429,365.326 301.601,365.323 296.283,365.316 C 290.965,365.309 285.577,365.277 281.04,365.237 C 276.504,365.197 272.573,365.182 269.063,365.075 C 265.552,364.968 262.521,364.794 259.975,364.594 C 257.429,364.395 255.462,364.11 253.786,363.878 C 252.111,363.645 250.91,363.397 249.922,363.198 C 248.934,362.999 248.322,362.816 247.858,362.683 A 7.415,7.415 -4.501296845286861 0,0 244.751,377.183 C 245.559,377.36 246.431,377.545 247.698,377.742 C 248.964,377.939 250.406,378.162 252.35,378.364 C 254.294,378.567 256.586,378.804 259.361,378.956 C 262.136,379.108 265.392,379.231 269,379.275 C 272.609,379.319 276.461,379.231 281.012,379.219 C 285.564,379.206 290.965,379.209 296.31,379.201 C 301.656,379.193 307.505,379.191 313.086,379.172 C 318.668,379.154 324.604,379.147 329.8,379.089 C 334.995,379.031 340.1,379.031 344.26,378.825 C 348.42,378.619 351.509,378.949 354.758,377.852 C 358.006,376.755 362.085,374.4 363.752,372.245 C 365.419,370.09 364.961,367.014 364.759,364.923 C 364.557,362.832 363.54,361.37 362.538,359.699 C 361.536,358.028 360.318,356.625 358.747,354.895 C 357.176,353.166 355.359,351.317 353.112,349.323 C 350.865,347.329 348.298,345.248 345.268,342.932 C 342.237,340.616 338.716,338.036 334.928,335.426 C 331.141,332.816 326.827,329.881 322.542,327.273 C 318.257,324.665 313.588,322.006 309.216,319.778 C 304.844,317.55 300.277,315.428 296.311,313.903 C 292.346,312.378 288.385,311.29 285.423,310.628 C 282.461,309.966 280.295,310.033 278.538,309.931 C 276.781,309.829 275.853,309.991 274.883,310.017 C 273.912,310.044 272.872,307.644 272.714,310.09 C 272.556,312.536 273.465,322.347 273.933,324.693 C 274.4,327.04 274.88,324.388 275.518,324.17 C 276.157,323.952 276.944,323.684 277.764,323.386 C 278.585,323.087 279.422,322.756 280.44,322.378 C 281.459,322 282.643,321.565 283.875,321.117 C 285.108,320.669 286.437,320.207 287.836,319.69 C 289.234,319.172 290.885,318.584 292.266,318.013 C 293.648,317.441 294.814,316.917 296.125,316.262 C 297.436,315.607 298.946,314.856 300.133,314.084 C 301.319,313.312 302.209,312.639 303.244,311.628 C 304.278,310.618 305.48,309.365 306.34,308.023 C 307.201,306.68 307.935,305.089 308.407,303.571 C 308.878,302.053 309.107,300.505 309.167,298.915 C 309.228,297.325 309.098,295.633 308.77,294.031 C 308.441,292.428 307.924,290.82 307.196,289.299 C 306.468,287.778 305.553,286.264 304.402,284.905 C 303.251,283.545 301.771,282.209 300.29,281.142 C 298.809,280.076 297.245,279.299 295.518,278.505 C 293.791,277.711 291.969,277.057 289.93,276.378 C 287.891,275.699 285.608,275.049 283.284,274.429 C 280.959,273.81 278.398,273.211 275.982,272.661 C 273.565,272.111 271.1,271.581 268.785,271.127 C 266.471,270.672 264.226,270.25 262.093,269.934 C 259.96,269.618 257.889,269.354 255.986,269.232 C 254.084,269.11 252.284,269.122 250.68,269.2 C 249.076,269.278 247.782,269.491 246.362,269.702 C 244.942,269.912 243.518,270.154 242.158,270.463 C 240.798,270.773 239.343,271.181 238.201,271.558 C 237.06,271.936 236.753,271.287 235.31,272.728 C 233.867,274.169 230.502,278.729 229.546,280.202 C 228.589,281.676 229.562,280.987 229.571,281.57 C 229.58,282.153 229.591,282.838 229.601,283.698 C 229.611,284.558 229.623,285.574 229.63,286.73 C 229.638,287.887 229.644,289.259 229.645,290.636 C 229.646,292.013 229.643,293.591 229.635,294.994 C 229.627,296.397 229.604,297.886 229.598,299.053 C 229.592,300.221 229.598,301.509 229.598,302 C 229.598,302.491 229.598,302 229.598,302 M 229.598,302  A 7.402,7.402 0 0,0 244.402,302"/><a:d a:t="0"/><a:m a:x="237" a:y="285" a:p="1" a:t="141.94"/><a:d a:t="153.16"/><a:m a:x="237" a:y="283" a:p="1" a:t="156.6"/><a:d a:t="168.39"/><a:m a:x="237" a:y="280" a:p="1" a:t="176.11"/><a:d a:t="185.65"/><a:m a:x="237" a:y="279" a:p="1" a:t="190.96"/><a:d a:t="202.64"/><a:d a:t="220.19"/><a:d a:t="235.72"/><a:d a:t="252.75"/><a:m a:x="238" a:y="279" a:p="1" a:t="279.74"/><a:m a:x="240" a:y="278" a:p="1" a:t="295.05"/><a:m a:x="245" a:y="277" a:p="1" a:t="312.75"/><a:d a:t="319.1"/><a:m a:x="248" a:y="276" a:p="1" a:t="329.13"/><a:d a:t="336.3"/><a:m a:x="253" a:y="276" a:p="1" a:t="346.74"/><a:d a:t="354.02"/><a:m a:x="257" a:y="276" a:p="1" a:t="362.77"/><a:d a:t="370.53"/><a:m a:x="261" a:y="276" a:p="1" a:t="380.28"/><a:d a:t="385.81"/><a:m a:x="267" a:y="278" a:p="1" a:t="396.45"/><a:d a:t="403.1"/><a:m a:x="276" a:y="280" a:p="1" a:t="414.39"/><a:d a:t="420.44"/><a:m a:x="284" a:y="282" a:p="1" a:t="429.39"/><a:d a:t="435.84"/><a:m a:x="292" a:y="284" a:p="1" a:t="448.22"/><a:d a:t="452.86"/><a:m a:x="298" a:y="286" a:p="1" a:t="463.28"/><a:d a:t="470.02"/><a:m a:x="300" a:y="288" a:p="1" a:t="483.84"/><a:d a:t="486.21"/><a:m a:x="301" a:y="290" a:p="1" a:t="497.91"/><a:d a:t="502.8"/><a:m a:x="302" a:y="293" a:p="1" a:t="517.66"/><a:d a:t="519.12"/><a:m a:x="302" a:y="297" a:p="1" a:t="532.99"/><a:d a:t="536.85"/><a:m a:x="302" a:y="300" a:p="1" a:t="551.9"/><a:d a:t="552.91"/><a:m a:x="302" a:y="304" a:p="1" a:t="567.26"/><a:d a:t="569.73"/><a:m a:x="300" a:y="306" a:p="1" a:t="586.33"/><a:d a:t="587.59"/><a:m a:x="298" a:y="308" a:p="1" a:t="600.41"/><a:d a:t="603.11"/><a:m a:x="295" a:y="309" a:p="1" a:t="620.39"/><a:d a:t="621.25"/><a:m a:x="292" a:y="310" a:p="1" a:t="633.51"/><a:d a:t="636.34"/><a:m a:x="290" a:y="311" a:p="1" a:t="652.9"/><a:d a:t="653.83"/><a:m a:x="284" a:y="313" a:p="1" a:t="669.1"/><a:d a:t="670.35"/><a:m a:x="280" a:y="315" a:p="1" a:t="687.42"/><a:d a:t="688.33"/><a:m a:x="275" a:y="316" a:p="1" a:t="702.42"/><a:d a:t="703.55"/><a:m a:x="273" a:y="317" a:p="1" a:t="722.13"/><a:d a:t="723.42"/><a:m a:x="271" a:y="318" a:p="1" a:t="735.58"/><a:d a:t="736.75"/><a:d a:t="753.83"/><a:m a:x="270" a:y="318" a:p="1" a:t="768.58"/><a:d a:t="769.95"/><a:d a:t="787.88"/><a:m a:x="271" a:y="318" a:p="1" a:t="832.27"/><a:m a:x="275" a:y="318" a:p="1" a:t="847.19"/><a:m a:x="278" a:y="317" a:p="1" a:t="866.43"/><a:d a:t="870.3"/><a:m a:x="283" a:y="317" a:p="1" a:t="880.63"/><a:d a:t="888.15"/><a:m a:x="290" a:y="317" a:p="1" a:t="898.55"/><a:d a:t="904.18"/><a:m a:x="304" a:y="321" a:p="1" a:t="914.83"/><a:d a:t="921.63"/><a:m a:x="325" a:y="333" a:p="1" a:t="935.2"/><a:d a:t="937.11"/><a:m a:x="340" a:y="345" a:p="1" a:t="950.09"/><a:d a:t="954.69"/><a:m a:x="350" a:y="354" a:p="1" a:t="967.97"/><a:d a:t="970.45"/><a:m a:x="356" a:y="361" a:p="1" a:t="983.22"/><a:d a:t="987.84"/><a:m a:x="359" a:y="364" a:p="1" a:t="1002.48"/><a:d a:t="1004.13"/><a:m a:x="359" a:y="366" a:p="1" a:t="1016.95"/><a:d a:t="1020.85"/><a:m a:x="359" a:y="369" a:p="1" a:t="1037.61"/><a:d a:t="1038.47"/><a:m a:x="359" a:y="371" a:p="1" a:t="1051.02"/><a:d a:t="1054.3"/><a:m a:x="355" a:y="372" a:p="1" a:t="1071.07"/><a:d a:t="1071.97"/><a:m a:x="350" a:y="372" a:p="1" a:t="1086.35"/><a:d a:t="1087.88"/><a:m a:x="334" a:y="372" a:p="1" a:t="1104.59"/><a:d a:t="1105.55"/><a:m a:x="312" a:y="372" a:p="1" a:t="1119.6"/><a:d a:t="1120.83"/><a:m a:x="285" a:y="372" a:p="1" a:t="1138.44"/><a:d a:t="1140.3"/><a:m a:x="269" a:y="372" a:p="1" a:t="1153.09"/><a:d a:t="1154.62"/><a:m a:x="258" a:y="372" a:p="1" a:t="1173.23"/><a:d a:t="1174.5"/><a:m a:x="250" a:y="372" a:p="1" a:t="1194.34"/><a:d a:t="1196.64"/><a:d a:t="1205.02"/><a:m a:x="246" a:y="372" a:p="1" a:t="1207.94"/><a:m a:x="245" a:y="370" a:p="1" a:t="1224.39"/><a:d a:t="1225.31"/><a:m a:x="245" a:y="369" a:p="1" a:t="1239.6"/><a:d a:t="1240.73"/><a:d a:t="1255.55"/><a:d a:t="1272.47"/><a:d a:t="1290.4"/><a:m a:x="245" a:y="369" a:t="1295.36"/><a:m a:x="245" a:y="371" a:t="1594.78"/><a:m a:x="241" a:y="383" a:t="1615.15"/><a:m a:x="228" a:y="412" a:t="1632.11"/><a:m a:x="210" a:y="450" a:t="1647.94"/><a:m a:x="186" a:y="493" a:t="1664.82"/><a:m a:x="171" a:y="515" a:t="1682.7"/><a:m a:x="155" a:y="541" a:t="1700.58"/><a:m a:x="145" a:y="555" a:t="1715.03"/><a:m a:x="140" a:y="564" a:t="1734.72"/><a:m a:x="135" a:y="571" a:t="1749.75"/><a:m a:x="134" a:y="576" a:t="1766.4"/><a:m a:x="132" a:y="585" a:t="1782.8"/><a:m a:x="129" a:y="596" a:t="1799.39"/><a:m a:x="128" a:y="607" a:t="1816.83"/><a:m a:x="127" a:y="620" a:t="1833.53"/><a:m a:x="124" a:y="637" a:t="1851.35"/><a:m a:x="120" a:y="652" a:t="1868.4"/><a:m a:x="116" a:y="663" a:t="1885.67"/><a:m a:x="111" a:y="671" a:t="1901.87"/><a:m a:x="109" a:y="677" a:t="1919.29"/><a:m a:x="108" a:y="680" a:t="1936.05"/><a:m a:x="106" a:y="681" a:t="1954.11"/><a:m a:x="106" a:y="682" a:t="1973.65"/><a:m a:x="105" a:y="682" a:t="1991.25"/><a:m a:x="104" a:y="683" a:t="2028.22"/><a:m a:x="104" a:y="683" a:t="2054.25"/><a:m a:x="103" a:y="684" a:t="2072.05"/><a:m a:x="102" a:y="684" a:t="2086.74"/><a:m a:x="90" a:y="692" a:t="2231.67"/><a:m a:x="89" a:y="692" a:t="2253.85"/><a:m a:x="88" a:y="692" a:t="2270.9"/><a:m a:x="87" a:y="692" a:t="2306.8"/><a:m a:x="86" a:y="692" a:t="2322"/><a:m a:x="84" a:y="692" a:t="2340.61"/><a:m a:x="81" a:y="693" a:t="2357.08"/><a:m a:x="79" a:y="693" a:t="2374.87"/><a:m a:x="78" a:y="694" a:t="2393.05"/><a:m a:x="77" a:y="694" a:t="2409.04"/><a:m a:x="76" a:y="694" a:t="2427.26"/><a:m a:x="64" a:y="699" a:t="2563.85"/><a:m a:x="63" a:y="699" a:t="2583.07"/><a:m a:x="62" a:y="700" a:t="2600.84"/><a:m a:x="61" a:y="700" a:t="2616.97"/><a:m a:x="60" a:y="701" a:t="2634.32"/><a:m a:x="59" a:y="701" a:t="2654"/><a:m a:x="58" a:y="701" a:t="2667.75"/><a:m a:x="58" a:y="702" a:t="2685.13"/><a:m a:x="57" a:y="702" a:t="2701.71"/><a:m a:x="57" a:y="703" a:t="2718.26"/><a:m a:x="56" a:y="703" a:t="2735.4"/><a:m a:x="55" a:y="703" a:t="2761.95"/><a:m a:x="54" a:y="703" a:t="2816.44"/><a:m a:x="54" a:y="704" a:t="2878.66"/><a:m a:x="54" a:y="704" a:t="2975.24"/></g><g a:type="void" a:t="6768.01"><a:m a:x="56" a:y="704" a:t="0.29"/><a:m a:x="58" a:y="704" a:t="0.29"/><a:m a:x="63" a:y="704" a:t="0.29"/><a:m a:x="67" a:y="704" a:t="0.29"/><a:m a:x="69" a:y="704" a:t="0.29"/><a:m a:x="72" a:y="704" a:t="0.29"/><a:m a:x="75" a:y="704" a:t="0.29"/><a:m a:x="78" a:y="704" a:t="0.29"/><a:m a:x="83" a:y="704" a:t="0.29"/><a:m a:x="86" a:y="704" a:t="0.29"/><a:m a:x="88" a:y="704" a:t="0.29"/><a:m a:x="89" a:y="704" a:t="0.29"/><a:m a:x="89" a:y="705" a:t="0.29"/><a:m a:x="89" a:y="705" a:t="0.29"/></g></g></svg>